<svg width="32" height="32" viewBox="0 0 32 32" fill="none" xmlns="http://www.w3.org/2000/svg">
<path opacity="0.4" fill-rule="evenodd" clip-rule="evenodd" d="M9.33301 17.6667C9.88529 17.6667 10.333 18.1145 10.333 18.6667V22.6667C10.333 23.219 9.88529 23.6667 9.33301 23.6667C8.78072 23.6667 8.33301 23.219 8.33301 22.6667V18.6667C8.33301 18.1145 8.78072 17.6667 9.33301 17.6667Z" fill="white"/>
<path opacity="0.4" fill-rule="evenodd" clip-rule="evenodd" d="M14.6665 15C15.2188 15 15.6665 15.4477 15.6665 16V22.6667C15.6665 23.219 15.2188 23.6667 14.6665 23.6667C14.1142 23.6667 13.6665 23.219 13.6665 22.6667V16C13.6665 15.4477 14.1142 15 14.6665 15Z" fill="white"/>
<path opacity="0.4" fill-rule="evenodd" clip-rule="evenodd" d="M20 17.6667C20.5523 17.6667 21 18.1145 21 18.6667V22.6667C21 23.219 20.5523 23.6667 20 23.6667C19.4477 23.6667 19 23.219 19 22.6667V18.6667C19 18.1145 19.4477 17.6667 20 17.6667Z" fill="white"/>
<path opacity="0.4" fill-rule="evenodd" clip-rule="evenodd" d="M25.333 15C25.8853 15 26.333 15.4477 26.333 16V22.6667C26.333 23.219 25.8853 23.6667 25.333 23.6667C24.7807 23.6667 24.333 23.219 24.333 22.6667V16C24.333 15.4477 24.7807 15 25.333 15Z" fill="white"/>
<path fill-rule="evenodd" clip-rule="evenodd" d="M2.6665 1.66675C3.21879 1.66675 3.6665 2.11446 3.6665 2.66675V24.0001C3.6665 26.3933 5.6066 28.3334 7.99984 28.3334H29.3332C29.8855 28.3334 30.3332 28.7811 30.3332 29.3334C30.3332 29.8857 29.8855 30.3334 29.3332 30.3334H7.99984C4.50203 30.3334 1.6665 27.4979 1.6665 24.0001V2.66675C1.6665 2.11446 2.11422 1.66675 2.6665 1.66675Z" fill="white"/>
<path fill-rule="evenodd" clip-rule="evenodd" d="M26.0401 7.29289C26.4306 7.68342 26.4306 8.31658 26.0401 8.70711L22.5924 12.1548C21.1605 13.5867 18.8389 13.5867 17.407 12.1548L15.8449 10.5927C15.194 9.94185 14.1387 9.94185 13.4878 10.5927L10.0401 14.0404C9.64959 14.431 9.01643 14.431 8.6259 14.0404C8.23538 13.6499 8.23538 13.0168 8.6259 12.6262L12.0736 9.17851C13.5055 7.74659 15.8271 7.74659 17.2591 9.17851L18.8212 10.7406C19.472 11.3915 20.5273 11.3915 21.1782 10.7406L24.6259 7.29289C25.0164 6.90237 25.6496 6.90237 26.0401 7.29289Z" fill="white"/>
</svg>
