<svg width="32" height="32" viewBox="0 0 32 32" fill="none" xmlns="http://www.w3.org/2000/svg">
<path opacity="0.4" d="M5.3335 16.0002C5.3335 14.5274 6.5274 13.3335 8.00016 13.3335H20.0002C21.4729 13.3335 22.6668 14.5274 22.6668 16.0002C22.6668 17.4729 21.4729 18.6668 20.0002 18.6668H8.00016C6.5274 18.6668 5.3335 17.4729 5.3335 16.0002Z" fill="#8A8A8A"/>
<path d="M20.0002 18.6667H8.22238C6.6269 18.6667 5.3335 19.8607 5.3335 21.3334C5.3335 22.8062 6.6269 24.0001 8.22239 24.0001H20.0002C21.4729 24.0001 22.6668 22.8062 22.6668 21.3334C22.6668 19.8607 21.4729 18.6667 20.0002 18.6667Z" fill="#8A8A8A"/>
<path opacity="0.4" d="M26.6667 24.0001C26.6667 21.0546 24.2789 18.6667 21.3333 18.6667C21.0675 18.6667 20.8063 18.6862 20.5509 18.7237C17.9763 19.1022 16 21.3203 16 24.0001C16 26.9456 18.3878 29.3334 21.3333 29.3334C24.2789 29.3334 26.6667 26.9456 26.6667 24.0001Z" fill="#8A8A8A"/>
<path fill-rule="evenodd" clip-rule="evenodd" d="M15.0003 4.52868L14.0408 5.48824C13.6502 5.87876 13.0171 5.87876 12.6266 5.48824C12.236 5.09771 12.236 4.46455 12.6266 4.07402L14.3504 2.35017C15.2616 1.43894 16.739 1.43894 17.6502 2.35017L19.3741 4.07402C19.7646 4.46455 19.7646 5.09771 19.3741 5.48824C18.9836 5.87876 18.3504 5.87876 17.9599 5.48824L17.0003 4.52868L17.0003 9.33341C17.0003 9.8857 16.5526 10.3334 16.0003 10.3334C15.448 10.3334 15.0003 9.8857 15.0003 9.33341L15.0003 4.52868Z" fill="#8A8A8A"/>
</svg>
